<?xml version="1.0" encoding="utf-8"?>
<!-- Generator: Adobe Illustrator 26.0.2, SVG Export Plug-In . SVG Version: 6.00 Build 0)  -->
<svg version="1.1" id="Layer_1" xmlns="http://www.w3.org/2000/svg" xmlns:xlink="http://www.w3.org/1999/xlink" x="0px" y="0px"
	 viewBox="0 0 513.3 513.3" style="enable-background:new 0 0 513.3 513.3;" xml:space="preserve">
<style type="text/css">
	.st0{fill:rgba(255,255,255,0.8);}
</style>
<g>
	<path class="st0" d="M420,49V23.3c0-8.3-4.4-16-11.7-20.2C401.1-1,392.2-1,385,3.1c-7.2,4.2-11.7,11.9-11.7,20.2v23.3H280V23.3
		c0-8.3-4.4-16-11.7-20.2C261.1-1,252.2-1,245,3.1c-7.2,4.2-11.7,11.9-11.7,20.2v23.3H140V23.3c0-8.3-4.4-16-11.7-20.2
		C121.1-1,112.2-1,105,3.1C97.8,7.3,93.3,15,93.3,23.3V49c-26.4,5.4-50,19.7-67,40.5C9.3,110.4,0,136.4,0,163.3v233.3
		c0,30.9,12.3,60.6,34.2,82.5s51.6,34.2,82.5,34.2h280c30.9,0,60.6-12.3,82.5-34.2s34.2-51.6,34.2-82.5V163.3
		c0-26.9-9.3-53-26.3-73.8C470,68.7,446.4,54.4,420,49L420,49z M466.7,396.7c0,18.6-7.4,36.4-20.5,49.5
		c-13.1,13.1-30.9,20.5-49.5,20.5h-280c-18.6,0-36.4-7.4-49.5-20.5C54,433,46.7,415.2,46.7,396.7V163.3c0-14.4,4.5-28.5,12.9-40.3
		c8.4-11.8,20.1-20.7,33.8-25.5v19.1c0,8.3,4.4,16,11.7,20.2s16.1,4.2,23.3,0S140,125,140,116.7V93.3h93.3l0,23.3
		c0,8.3,4.4,16,11.7,20.2s16.1,4.2,23.3,0S280,125,280,116.7V93.3h93.3l0,23.3c0,8.3,4.4,16,11.7,20.2s16.1,4.2,23.3,0
		S420,125,420,116.7V97.5c13.6,4.8,25.4,13.7,33.8,25.5c8.4,11.8,12.9,25.9,12.9,40.3L466.7,396.7z"/>
	<path class="st0" d="M186.7,245c0,19.3-15.7,35-35,35s-35-15.7-35-35c0-19.3,15.7-35,35-35S186.7,225.7,186.7,245"/>
	<path class="st0" d="M291.7,245c0,19.3-15.7,35-35,35s-35-15.7-35-35c0-19.3,15.7-35,35-35S291.7,225.7,291.7,245"/>
	<path class="st0" d="M396.7,245c0,19.3-15.7,35-35,35s-35-15.7-35-35c0-19.3,15.7-35,35-35S396.7,225.7,396.7,245"/>
	<path class="st0" d="M186.7,361.7c0,19.3-15.7,35-35,35s-35-15.7-35-35s15.7-35,35-35S186.7,342.3,186.7,361.7"/>
	<path class="st0" d="M291.7,361.7c0,19.3-15.7,35-35,35s-35-15.7-35-35s15.7-35,35-35S291.7,342.3,291.7,361.7"/>
	<path class="st0" d="M396.7,361.7c0,19.3-15.7,35-35,35s-35-15.7-35-35s15.7-35,35-35S396.7,342.3,396.7,361.7"/>
</g>
</svg>
