<?xml version="1.0" encoding="utf-8"?>
<!-- Generator: Adobe Illustrator 26.0.2, SVG Export Plug-In . SVG Version: 6.00 Build 0)  -->
<svg version="1.1" id="Layer_1" xmlns="http://www.w3.org/2000/svg" xmlns:xlink="http://www.w3.org/1999/xlink" x="0px" y="0px"
	 viewBox="0 0 392.5 392.5" style="enable-background:new 0 0 392.5 392.5;" xml:space="preserve">
<style type="text/css">
	.st0{fill:#FFFFFF;}
</style>
<path class="st0" d="M353.2,0h-78.5c-21.6,0-39.3,17.6-39.3,39.3v39.2l-78.5,0c-21.6,0-39.3,17.6-39.3,39.3l0,39.3H39.3
	C17.7,157,0,174.6,0,196.2v157c0,21.7,17.6,39.3,39.3,39.3h313.9c21.7,0,39.3-17.5,39.3-39.3l0-313.9C392.4,17.6,374.9,0,353.2,0
	L353.2,0z M117.7,353.2H39.3v-157h78.5V353.2z M235.5,353.2H157V117.8h78.5L235.5,353.2L235.5,353.2z M353.2,353.2h-78.5V39.3h78.5
	V353.2z"/>
</svg>
