<svg id="Layer_1" data-name="Layer 1" xmlns="http://www.w3.org/2000/svg" viewBox="0 0 739.2 737.87"><defs><style>.cls-1{fill:#fff;}</style></defs><path class="cls-1" d="M74,678.84q-12.91,0-20.45-4.64A25.78,25.78,0,0,1,42.7,660.93q-3.27-8.62-3.27-20.67V596.45q0-12,3.27-20.6a25.11,25.11,0,0,1,10.81-13.06Q61,558.3,74,558.29t20.67,4.57a25.39,25.39,0,0,1,10.88,13.06q3.27,8.49,3.27,20.53v43.81q0,12-3.27,20.67A25.67,25.67,0,0,1,94.63,674.2Q87,678.85,74,678.84Zm0-17.26c3.09,0,5.37-.7,6.82-2.1a10.62,10.62,0,0,0,2.9-5.66,38.36,38.36,0,0,0,.72-7.62V590.64a37.26,37.26,0,0,0-.72-7.54,10.55,10.55,0,0,0-2.9-5.58c-1.45-1.41-3.73-2.11-6.82-2.11q-4.35,0-6.53,2.11a10.48,10.48,0,0,0-2.9,5.58,37.26,37.26,0,0,0-.72,7.54V646.2a41.77,41.77,0,0,0,.65,7.62,10.15,10.15,0,0,0,2.83,5.66Q69.46,661.58,74,661.58Z"/><path class="cls-1" d="M124.73,677.25V559.75H162q10.59,0,17.27,4a24.31,24.31,0,0,1,9.93,11.54q3.27,7.54,3.27,18.28,0,12.62-4.28,19.72a23.71,23.71,0,0,1-11.68,10.09,45.28,45.28,0,0,1-17,3H148.67v50.92Zm23.94-67.75h8.41c3.48,0,6.17-.55,8-1.67a8.47,8.47,0,0,0,3.85-5.29,35.55,35.55,0,0,0,1-9.28,42.91,42.91,0,0,0-.8-9,9.23,9.23,0,0,0-3.55-5.66q-2.76-2-8.7-2h-8.27Z"/><path class="cls-1" d="M204.8,677.25V559.75H256v16.53H228.74v31.19h21v16.68h-21V661H256.3v16.25Z"/><path class="cls-1" d="M268.34,677.25V559.75H285L311.14,621V559.75h19.72v117.5H314.91l-26.11-65v65Z"/><path class="cls-1" d="M379.17,678.84q-10.87,0-18.13-4a25.37,25.37,0,0,1-11-12q-3.69-8-4.28-20.52l20.6-3.48a59.89,59.89,0,0,0,1.53,12.11,14.59,14.59,0,0,0,3.77,7.25,8.81,8.81,0,0,0,6.31,2.39c3.09,0,5.2-1,6.31-2.9A13.13,13.13,0,0,0,386,651a20.86,20.86,0,0,0-3.56-12.4,59.16,59.16,0,0,0-9.35-10.08l-12.19-10.59a49.13,49.13,0,0,1-10.66-12.48q-4.14-7-4.14-17.12,0-14.51,8.49-22.26t23.28-7.77q8.85,0,14.51,2.91a22.17,22.17,0,0,1,8.78,7.76,32,32,0,0,1,4.35,10.59A71.23,71.23,0,0,1,407,590.93L386.57,594a91.5,91.5,0,0,0-.95-9.43,12.83,12.83,0,0,0-2.61-6.38q-2-2.32-5.87-2.32A6.92,6.92,0,0,0,370.9,579a12.3,12.3,0,0,0-2,6.89,17.2,17.2,0,0,0,2.83,10.22,50.09,50.09,0,0,0,7.76,8.35l11.89,10.44a67.66,67.66,0,0,1,12.7,14.58q5.29,8.19,5.29,20.23a29.89,29.89,0,0,1-3.77,15,26.94,26.94,0,0,1-10.52,10.44A31.94,31.94,0,0,1,379.17,678.84Z"/><path class="cls-1" d="M422,677.25V559.75h37.28q10.59,0,17.27,4a24.31,24.31,0,0,1,9.93,11.54q3.27,7.54,3.27,18.28,0,12.62-4.28,19.72a23.71,23.71,0,0,1-11.68,10.09,45.28,45.28,0,0,1-17,3H445.9v50.92ZM445.9,609.5h8.41c3.48,0,6.17-.55,8.05-1.67a8.47,8.47,0,0,0,3.85-5.29,35.55,35.55,0,0,0,1-9.28,42.91,42.91,0,0,0-.8-9,9.23,9.23,0,0,0-3.55-5.66q-2.76-2-8.7-2H445.9Z"/><path class="cls-1" d="M489.7,677.25l22.78-117.5H539l22.63,117.5h-22.2l-4.21-25.82H516.69l-4.5,25.82Zm29.16-40.48h14.07l-7.1-47.43Z"/><path class="cls-1" d="M604.6,678.84q-13.07,0-20.67-4.93a26,26,0,0,1-10.67-13.71,62.12,62.12,0,0,1-3-20.38V597.61a64.24,64.24,0,0,1,3-21,25.35,25.35,0,0,1,10.67-13.56q7.61-4.79,20.67-4.79,12.61,0,19.8,4.21a23.06,23.06,0,0,1,10.15,11.9,49.29,49.29,0,0,1,3,17.84v9.86H614.32v-11a62.82,62.82,0,0,0-.44-7.62,10.61,10.61,0,0,0-2.39-5.8q-2-2.25-6.75-2.25c-3.19,0-5.51.78-7,2.32a11.12,11.12,0,0,0-2.76,6,54.05,54.05,0,0,0-.58,8.2v53.38a41.36,41.36,0,0,0,.8,8.63,10,10,0,0,0,3,5.66c1.49,1.31,3.65,2,6.45,2q4.65,0,6.6-2.25a11.18,11.18,0,0,0,2.47-6,59.49,59.49,0,0,0,.51-8V633.87h23.21v9.72a52.79,52.79,0,0,1-2.9,18.21,24.53,24.53,0,0,1-10,12.47Q617.51,678.85,604.6,678.84Z"/><path class="cls-1" d="M652.18,677.25V559.75h51.21v16.53H676.11v31.19h21v16.68h-21V661h27.57v16.25Z"/><path class="cls-1" d="M423.4,251.55q-1.32,8.68-3,17.58l38.07,29.81V222.59l-29.86-19.7c0,1.75-.26,3.61-.42,5.3s-.26,4.29-.26,6.61c-.32,4-.74,8-1.16,12.13a56.83,56.83,0,0,1-.64,5.93q-1,8.37-2.33,17a5.75,5.75,0,0,0-.43,1.64Z"/><path class="cls-1" d="M567.78,452.16a5.3,5.3,0,0,1-1.48-3.71,39.81,39.81,0,0,0-25.78-37.06,5.3,5.3,0,0,1-3.45-4.61,39.8,39.8,0,0,0-39.6-37.06,40.65,40.65,0,0,0-5.29.37,5.26,5.26,0,0,1-5.29-2.6A39.83,39.83,0,0,0,442.47,349l3.44,7.78h0a5.3,5.3,0,0,1-9.69,4.29L430.44,348a39.68,39.68,0,0,0-36.16-23.29,35.75,35.75,0,0,0-5.93.47,5.29,5.29,0,0,1-6.19-5.29v-26H346.31v30.92a5.28,5.28,0,0,1-7.88,4.6,39.66,39.66,0,0,0-57,22.35l11,8.63h0a5.3,5.3,0,0,1-6.57,8.31l-13.28-10.59h0a39.11,39.11,0,0,0-15.88-3.34A39.78,39.78,0,0,0,217,394.44a38.74,38.74,0,0,0,2.17,13,5.29,5.29,0,0,1-4.34,7,39.46,39.46,0,0,0-33.3,28.38,5.28,5.28,0,0,1-2.33,3.07,39.36,39.36,0,0,0-18.8,33.72,39.76,39.76,0,0,0,39.93,39.92H539.14a39.7,39.7,0,0,0,28.43-67.39Zm-302-31.3c-32.72,7.1-35.2,28.91-35.2,35.32a16.83,16.83,0,0,0,0,1.74v.53h0a5.31,5.31,0,0,1-4.77,5.29h-.58a5.31,5.31,0,0,1-5.3-4.77v-2c0-8,2.81-37.76,43.47-46.54h0a5.41,5.41,0,1,1,2.23,10.58ZM379.14,374a5.3,5.3,0,0,1-7.47.38c-25.31-23-53.42-.8-54.58,0a5.3,5.3,0,0,1-6.67-8.21c12.44-10.17,42.67-23.19,68.4,0a5.28,5.28,0,0,1,.37,7.46Zm138.13,65.6h-.37a5.29,5.29,0,0,1-5.3-5c-2.22-34.31-37.85-37.65-39.39-37.76h0a5.3,5.3,0,0,1-4.87-5.3v-.42a5.3,5.3,0,0,1,5.72-4.82c15.89,1.32,46.8,13,49.08,47.65v.37a5.29,5.29,0,0,1-4.87,5.24Z"/><path class="cls-1" d="M304.86,250.49q-1.38-8.9-2.39-17.52a52.21,52.21,0,0,0-.63-5.77c-.42-4.13-.95-8.26-.95-12.29,0-2.17-.32-4.28-.48-6.4s-.32-3.76-.43-5.56l-29.86,19.64v76.29l38.06-29.8q-2-9-3.18-17.48Z"/><path class="cls-1" d="M364.42,54c-9,3.65-57.71,28.7-54.27,139.19a479.79,479.79,0,0,0,5.3,56.76q1.53,10,3.49,20.33,1.21,6.35,2.59,13h85.25c.9-4.39,1.79-8.68,2.59-12.92h0a556.12,556.12,0,0,0,8-59.19q.69-9.21,1-18C421.92,82.76,373.26,57.67,364.42,54Zm0,116.16A27.86,27.86,0,1,1,384.06,162a27.83,27.83,0,0,1-19.64,8.16Z"/><path class="cls-1" d="M381.42,142.32a17.21,17.21,0,1,1-17.21-17.2,17.21,17.21,0,0,1,17.21,17.2"/></svg>