<svg id="Layer_1" data-name="Layer 1" xmlns="http://www.w3.org/2000/svg" viewBox="0 0 2261.94 2821.21"><defs><style>.cls-1{fill:#fff;}.cls-2{opacity:0.35;}.cls-3{fill:#371a45;}.cls-4{fill:#220f2d;}.cls-5{opacity:0.5;}.cls-6{fill:#22a7f0;}</style></defs><path class="cls-1" d="M1312.62,1199.33l25.18,90.19,12.81,46,221.08,792.28s53.16-18.14,122.5-48.19c13.56-5.88,27.75-12.21,42.27-18.95,108.26-50.17,235.41-123,266.37-199,46.27-113.63-91.37-538.1-219.87-679.91-58.88-65-231-40.83-349.89-14.2-13.29,3-25.92,6-37.63,8.9C1346,1188.66,1312.62,1199.33,1312.62,1199.33Z"/><g class="cls-2"><path class="cls-3" d="M1337.8,1289.52l12.81,46,175.54,629.08,45.54,163.2,3.21-1.12c.59-.22,1.31-.47,2.06-.73l1.94-.7c.52-.16,1-.36,1.55-.52.19-.09.44-.14.63-.23,1-.35,2-.72,3.13-1.14a6.14,6.14,0,0,0,.75-.26l2.89-1.05c1.39-.48,2.81-1,4.31-1.58,1.06-.41,2.21-.8,3.35-1.24l3.6-1.33c1.54-.57,3.15-1.19,4.81-1.79,3.35-1.28,6.91-2.6,10.64-4,3.32-1.23,6.78-2.58,10.4-4,4.16-1.63,8.53-3.32,13-5.12,16.68-6.64,35.72-14.45,56.18-23.32,4-1.72,8-3.51,12.11-5.3,2.84-1.24,5.76-2.55,8.67-3.86,7-3.15,14.25-6.42,21.49-9.79,108.3-50.18,235.41-123,266.33-199,38.13-93.55-48.43-397.9-152-581.64,66.75,168.12,108.85,358.27,80.11,428.79-14.21,34.86-139.85-29.16-156.6-84.62-43.21-143-126.78-317.75-293.5-382.58C1476.49,1239.86,1403.45,1275,1337.8,1289.52Z"/></g><path class="cls-3" d="M1560.13,2149.68l-268.28-961.55,15.6-5c3.9-1.24,96.7-30.72,202.65-48,146.65-23.94,242.69-12.12,285.48,35.11,134.08,148,271.63,578.36,223,697.78-58.55,143.78-425.81,270.51-441.42,275.83Zm-226.68-939,249.69,894.92c72.93-26.67,357.79-137.09,403.94-250.42,19.64-48.22,2.05-173-44.81-317.75-48-148.41-113.91-280.36-171.9-344.35C1703.3,1119.06,1445.88,1176.88,1333.45,1210.69Z"/><path class="cls-1" d="M1924.5,1532.18l-149.41,61.94a31.66,31.66,0,0,0-19.28,33.64c7.32,52.36,30.53,172.43,91.13,194.65,50.29,18.44,113.86-6.59,141.24-51.22,30.63-49.92-2.42-164.29-21.52-220A31.72,31.72,0,0,0,1924.5,1532.18Z"/><g class="cls-2"><path class="cls-3" d="M1755.82,1627.77c7.3,52.36,30.53,172.42,91.13,194.63,50.3,18.45,113.85-6.58,141.25-51.22,18.82-30.72,13.57-85.8,2.29-136.61,1.19,26.85-3.08,50.37-12.24,67.91-52.52,100.44-139.28,31-139.28,31s-2.93,24.77-10.5,28.61c-31.67,16.06-59.13-90.57-72.06-146.07A30.77,30.77,0,0,0,1755.82,1627.77Z"/></g><path class="cls-3" d="M1882.54,1845.51a120.31,120.31,0,0,1-41.46-7.13c-66.92-24.54-92.71-141-102.12-208.26a48.7,48.7,0,0,1,29.62-51.71L1918,1516.47h0a48.7,48.7,0,0,1,64.76,29.19c26.79,78.11,52,182.19,19.94,234.42C1977.78,1820.67,1929.32,1845.51,1882.54,1845.51Zm54.13-298.75a14.68,14.68,0,0,0-5.65,1.13h0l-149.41,61.93a14.66,14.66,0,0,0-8.95,15.57c14,100.1,44,167.78,80.14,181,41.51,15.22,96.87-5,120.9-44.14,19-31,10.39-107.87-23.12-205.59a14.69,14.69,0,0,0-13.9-10Zm-12.17-14.57h0Z"/><path class="cls-3" d="M1927.86,1833.79a63.65,63.65,0,0,1-8.81-2.47c-2.57-.92-5.09-1.89-7.49-3a113.78,113.78,0,0,1-13.86-7.27,135.58,135.58,0,0,1-24.1-18.65,171.5,171.5,0,0,1-34.67-47.56,243.75,243.75,0,0,1-11.22-26.56c-3.47-9-5.89-17.87-8.53-26.93s-4.73-18.2-6.48-27.49c-.84-4.65-1.63-9.32-2.18-14.06a98.05,98.05,0,0,1-.79-14.75,4.48,4.48,0,0,1,9-.15l0,.48a94.45,94.45,0,0,0,2,12.76c.93,4.37,2.1,8.72,3.31,13.06,2.51,8.66,5.46,17.24,8.72,25.71s6.61,17.06,10.61,25a223.57,223.57,0,0,0,12.58,23.36,149.43,149.43,0,0,0,34,38.54,109.23,109.23,0,0,0,21,13.26,84.44,84.44,0,0,0,11.13,4.54c1.87.66,3.72,1.16,5.55,1.63a36.27,36.27,0,0,0,4.61.86,15.1,15.1,0,1,1-3.33,29.92Z"/><path class="cls-3" d="M1543.86,1238.13c18.05-8.82,36.13-17.06,54.43-25.1s36.74-15.74,55.46-23,37.59-14.14,57-20.1,39.13-11.39,60.2-14.62a17,17,0,0,1,5.15,33.65c-.38,0-.76.1-1.14.13l-.17,0c-18.34,1.5-37.31,5.27-56.13,9.65s-37.69,9.84-56.42,15.61-37.39,12.1-55.94,18.73-37.07,13.61-55.21,21l-.09,0a8.77,8.77,0,0,1-7.14-16Z"/><path class="cls-1" d="M687.31,1291.29c18.8,42.34,45.77,84.31,54.33,106.64l-44.17,77.85L647.41,1564q-37.83,4.36-72.75,6.48c-417,25.77-539.55-175.65-553.26-272C-5.73,1107.76,103,986.77,153.21,937.53A324.33,324.33,0,0,1,179,915.05c165.84-130.65,599.9-252.93,725.4-78.81,70.71,98,21.91,265.91-197.79,332.19C652.75,1184.63,663.68,1238.22,687.31,1291.29Z"/><g class="cls-2"><path class="cls-3" d="M716.28,1348.45c11,20.13,20.81,37.59,25.36,49.48l-94.23,166c-475.67,55.09-611.54-163.78-626-265.5A411.82,411.82,0,0,1,18.25,1209c.55,5.78,10.78,81.53,12.19,87.36C56.94,1405.9,309.33,1542.74,382,1506.1c17.88-9,31.49-19.8,39.76-22.61,15.07-5.13,22.73,16.4,46.12,14.93,21.41-1.34,23.58-37.44,40.09-32.83,13.26,3.7,29.55,36,49,34.9Z"/></g><path class="cls-3" d="M502.4,1589.81c-143.27,0-260.64-28.58-350.08-85.45C56,1443.14,12.83,1359.09,4.55,1300.86c-20-140.53,26-266.86,136.75-375.47C245.57,823.12,523.21,717.6,724.91,734.82c90,7.68,155,38.45,193.25,91.46,34.46,47.8,42.7,109.27,22.59,168.63-28.92,85.39-112.5,154.56-229.29,189.79C586.12,1222.5,440,1285.37,422.55,1321c-.81,1.67-1,2.82-.89,3.19a17,17,0,0,1-31.75,12.2c-2.56-6.67-4.28-17.34,2.09-30.35,34.41-70.24,298.41-150.54,309.64-153.93,106.13-32,181.55-93.29,206.89-168.13,16.54-48.82,10-99.06-18-137.83C858.41,801.57,801.7,775.51,722,768.7c-189.72-16.21-459.83,85.75-556.9,181-102.59,100.62-145.28,217.17-126.9,346.4,15.56,109.33,162.49,302.5,607.24,251a17,17,0,1,1,3.91,33.79A1280.53,1280.53,0,0,1,502.4,1589.81Z"/><path class="cls-1" d="M2241,786.24c-5.81,30.74-18.18,64.08-37.54,99-141.48,255.15-637.87,457.67-637.87,457.67s28.18,88.42,89.19,245.69c1.41,3.67,2.87,7.35,4.32,11.12,18.85,48.29,40.68,102.79,65.6,162.94,29.2,70.42,62.67,148.65,100.67,233.74,91.24,204.59,169.76,474.37,169.76,474.37s218,74.07,214.86,208.73a124.86,124.86,0,0,1-2.45,22.06c-25.62,129.46-525,102.37-566.9,41-50.16-73.4-70.37-136.93-119.84-248.57-36.65-82.64-75.41-168-160.72-237.22-96.47-70.91-255.09-71.71-357.6-62.25-147.4,13.63-171.74,104.71-190.27,170.72C781.26,2475.11,799.8,2701.39,694.93,2766c-57.32,35.3-529.76,89.93-557.25-72.24-5.58-33,.28-60.55,12.54-83.43,40.3-75.33,149.86-100.11,149.86-100.11s-10.95-177.54-.14-275.2c26.66-241.35,326.81-352,326.81-352s-1.06-23.37-12.39-99c-14-93.43-28.72-165.51-39.7-213.57-10.52-45.86-17.67-70-17.67-70l-27.73-81.25-15.67-45.91,173.72-82L1344.55,980.9c21.37-13.27,45.09-29,70.65-46.29,194.52-132,496.55-358.45,695.86-330.25C2212.64,618.72,2259.24,689.88,2241,786.24Z"/><g class="cls-2"><path class="cls-3" d="M2241,786.24c-5.81,30.74-18.18,64.08-37.54,99-141.48,255.15-637.87,457.67-637.87,457.67s28.18,88.42,89.19,245.69L1623,1603.14c-36.66-113.31-158.83-51.65-166.93-97.46-4.07-23.12,68.11-45.71,45.33-89.3s-133.5-16.38-131.62-51.57c1.49-27,61.46-22.82,102.76-33.75s-22.21-69.84-26.61-89.08c-6.94-30.09,59.64-4.17,139.49-10.24C1913.06,1206.9,2155,908.44,2241,786.24Z"/></g><g class="cls-2"><path class="cls-3" d="M2210,2679.47a124.86,124.86,0,0,1-2.45,22.06c-25.62,129.46-525,102.37-566.9,41-50.16-73.4-70.37-136.93-119.84-248.57-36.65-82.64-75.41-168-160.72-237.22-96.47-70.91-255.09-71.71-357.6-62.25-147.4,13.63-171.74,104.71-190.27,170.72C781.26,2475.11,799.8,2701.39,694.93,2766c-57.32,35.3-529.76,89.93-557.25-72.24-5.58-33,.28-60.55,12.54-83.43,5.25,30.88,29.2,64.81,98.4,86.78,155.53,49.36,417.46,58.55,452.71-54.43s12.19-216.68,13.5-313.1c1-76.63-8.27-176.17,41.29-206.45,26-15.9,57.9,20,98.4,14.93s41-97.27,69.56-98.58c35.23-1.65,29.82,60.4,103.52,85.15,66.53,22.35,237.15,18.74,297.66-41.12,57.77-57.16,38.73,44.47,54,73.89,29.39,56.73,146.12-37.59,162.77,5.5,7.64,19.83-21,92.91-7.15,178.48,17.26,107,83.83,290,216.19,358.22C1845.09,2748,2110.61,2758.53,2210,2679.47Z"/></g><path class="cls-3" d="M422.86,2821.21c-82,0-164.67-9.45-222.53-35.67-46.25-21-73-50.91-79.43-89-19.73-116.45,90-178.89,161.41-199.35-2.36-44.24-8.47-181.06.71-264.1,24.72-223.62,267.43-337.1,325.72-361.24-1.35-13.59-4.42-40-11.22-85.33-26.86-179.1-56.55-280.18-56.85-281.18a17,17,0,0,1,32.6-9.69c1.24,4.16,30.64,104.08,57.89,285.82,11.34,75.63,12.53,99.78,12.57,100.77l.56,12.41L632.63,1899c-2.9,1.07-290.61,110-315.8,337.87-10.51,95.06.11,270.54.22,272.3l.89,14.44-14.11,3.19c-6.95,1.59-170.36,40.39-149.4,164.09,4.45,26.26,24.62,47.7,59.94,63.7,138.06,62.57,435.39,19.26,471.64-3.07,65.73-40.47,78.54-158.5,89.84-262.64,5.2-48,10.12-93.26,19.94-128.2l.48-1.69c18.65-66.4,46.85-166.74,204.62-181.33,92.95-8.6,264.52-11.52,369.24,65.48l.64.49c89.9,72.91,130.09,163.55,165.54,243.52,12.84,28.95,23.87,55.06,33.6,78.09,28.16,66.61,48.5,114.74,84.73,167.79,20.75,30.37,254.48,64,423.09,29.54,67.47-13.81,107.64-36.64,113.11-64.28,26.18-132.27-199-210.64-201.22-211.42l-8.37-2.85-2.48-8.49c-.78-2.69-79.26-271-169-472.17-178.89-401-259.63-652.79-260.42-655.28l-4.77-15,14.55-5.94c4.91-2,492.47-203.22,629.4-450.18,41-74,50.41-141.11,26.5-189.13-18.08-36.3-54.86-59.34-106.35-66.62-172.79-24.41-432.6,154.54-622.32,285.21-48.76,33.59-94.82,65.32-132.84,88.94a17,17,0,0,1-17.94-28.9c37.32-23.19,83.06-54.69,131.48-88.05,194.33-133.85,460.5-317.18,646.38-290.88,63.08,8.92,108.74,38.36,132,85.14,29.05,58.34,19.39,136.75-27.2,220.78-130.67,235.67-546.52,422.68-631.66,459,19.8,59.19,100.61,292.64,254.22,637,81.72,183.21,154,421,168.1,468.2,44.68,16.8,244.27,100.6,215.25,247.19-8.55,43.17-55.54,73.79-139.66,91-148.32,30.37-419.82,12.22-458-43.68s-59-105.3-88-173.72c-9.68-22.91-20.65-48.88-33.36-77.55-33.86-76.37-72.23-162.91-155.56-230.63-95.7-70.1-257.58-66.93-345.63-58.79-134.49,12.44-157,92.42-175,156.67l-.48,1.7c-9,32.22-13.82,76.15-18.87,122.66-12.14,111.9-25.9,238.73-105.82,287.94C674.19,2798.7,549.33,2821.21,422.86,2821.21Z"/><g class="cls-2"><path class="cls-3" d="M1415.2,919.61c-27.62,234-176.32,421.31-374.68,504.59q-16.43,6.87-33.32,12.85a599.58,599.58,0,0,1-178.5,33.42,607,607,0,0,1-99.18-4.67c-10.78-1.46-21.48-3.09-32-5-.3,0-.55-.12-.85-.16a623.92,623.92,0,0,1-65.41-15.74,617.48,617.48,0,0,1-102-40.64,635.72,635.72,0,0,1-169.49-124.88A657.35,657.35,0,0,1,179,900.05c165.84-130.65,599.9-252.93,725.4-78.81,70.71,98,21.91,265.91-197.79,332.19-53.81,16.2-42.88,69.79-19.25,122.86L1344.55,965.9C1365.92,952.63,1389.64,936.94,1415.2,919.61Z"/></g><path class="cls-1" d="M295.06,1179.54a676.86,676.86,0,0,0,295.33,174,685.49,685.49,0,0,0,71.4,16.19c11.81,2.06,23.82,3.76,35.94,5.26a681.83,681.83,0,0,0,108.4,4.09,677.3,677.3,0,0,0,195.5-37.26q18.5-6.54,36.55-14c220-91.56,385.48-296,415.24-549.56,43.92-373.46-223.26-711.77-596.66-755.71a679.44,679.44,0,0,0-210.09,7.86c-7.9,1.47-15.78,3.18-23.62,5.05Q591.55,42.8,561.15,53A684.55,684.55,0,0,0,311.24,202.46q-17,15.89-32.84,32.95a680.34,680.34,0,0,0-177.33,383.9C75.79,834.14,153.48,1037.29,295.06,1179.54Z"/><path class="cls-3" d="M777.74,1381.5a688.8,688.8,0,0,1-80.22-4.7c-13.33-1.64-25.12-3.36-36-5.26a693,693,0,0,1-71.58-16.24,681.07,681.07,0,0,1-296.12-174.49C145.68,1032,74.79,827.28,99.28,619.1a682.08,682.08,0,0,1,177.8-384.91c10.4-11.2,21.48-22.32,32.93-33.05A686.55,686.55,0,0,1,560.58,51.27c20.22-6.77,41.1-12.67,62.06-17.53,8.35-2,16.11-3.65,23.7-5.07A680.76,680.76,0,0,1,857,20.8c373.84,44,642.21,383.89,598.25,757.7-28.76,245-188.29,456.12-416.34,551-12,5-24.35,9.7-36.65,14a677.62,677.62,0,0,1-196,37.36Q792,1381.5,777.74,1381.5ZM296.33,1178.27a677.59,677.59,0,0,0,294.55,173.57A687.84,687.84,0,0,0,662.09,1368c10.87,1.89,22.6,3.61,35.86,5.24a681.92,681.92,0,0,0,108.11,4.08,675.2,675.2,0,0,0,195-37.16c12.24-4.32,24.5-9,36.46-14,226.85-94.39,385.54-304.42,414.15-548.11,43.73-371.84-223.23-710-595.1-753.71A677.42,677.42,0,0,0,647,32.21c-7.55,1.4-15.25,3-23.56,5-20.86,4.84-41.63,10.7-61.74,17.44A682.5,682.5,0,0,0,312.47,203.77c-11.39,10.67-22.4,21.73-32.75,32.87A678.46,678.46,0,0,0,102.85,619.52C78.49,826.6,149,1030.25,296.33,1178.27Z"/><g class="cls-2"><path class="cls-3" d="M1453.42,778.28c-29.74,253.54-195.22,458-415.26,549.56q-18,7.48-36.53,14a682,682,0,0,1-303.9,33.2c-12.11-1.53-24.11-3.21-35.94-5.24a695.39,695.39,0,0,1-71.4-16.23,676.7,676.7,0,0,1-295.35-174,684.89,684.89,0,0,1-112.58-149.24A679.31,679.31,0,0,0,538,1209.55c11.8,2.06,23.8,3.74,35.94,5.25A684.54,684.54,0,0,0,773.06,1209a677.65,677.65,0,0,0,104.73-27.42q18.54-6.54,36.57-14c220-91.52,385.48-296,415.25-549.56a677.56,677.56,0,0,0-81.51-411C1396.87,349.65,1479.36,557.85,1453.42,778.28Z"/></g><path class="cls-3" d="M777.75,1393.56a701.89,701.89,0,0,1-81.63-4.78c-13.6-1.68-25.58-3.43-36.71-5.37a704.57,704.57,0,0,1-72.79-16.51,693,693,0,0,1-301.38-177.59h0C134.52,1037.89,62.38,829.54,87.3,617.69A694.15,694.15,0,0,1,268.24,226c10.6-11.41,21.87-22.72,33.52-33.64a698.25,698.25,0,0,1,255-152.51c20.59-6.9,41.84-12.9,63.18-17.84,8.47-2,16.42-3.73,24.21-5.18a692.78,692.78,0,0,1,214.23-8c380.45,44.76,653.56,390.67,608.83,771.09-29.27,249.3-191.61,464.17-423.69,560.74-12.24,5.06-24.77,9.85-37.27,14.26a690,690,0,0,1-199.54,38Q792.28,1393.56,777.75,1393.56Zm-472.87-223.8a665.26,665.26,0,0,0,289.29,170.48,680.3,680.3,0,0,0,70,15.87c10.71,1.86,22.25,3.55,35.31,5.15a669.63,669.63,0,0,0,106.12,4,662.49,662.49,0,0,0,191.51-36.5c12-4.23,24.06-8.85,35.83-13.71,222.8-92.71,378.67-299,406.77-538.38C1482.61,411.43,1220.4,79.32,855.14,36.35A665.18,665.18,0,0,0,649.34,44c-7.46,1.39-15,3-23.07,4.93-20.58,4.77-41,10.53-60.72,17.14A670.73,670.73,0,0,0,320.72,212.56c-11.19,10.49-22,21.35-32.17,32.28A666.47,666.47,0,0,0,114.83,620.93c-23.93,203.4,45.34,403.44,190.05,548.83Z"/><path class="cls-3" d="M777.75,1397.58a705.7,705.7,0,0,1-82.1-4.81c-13.69-1.69-25.74-3.45-36.93-5.4a707.87,707.87,0,0,1-73.2-16.6,697.19,697.19,0,0,1-303.13-178.62h0C130.8,1039.85,58.24,830.3,83.31,617.22a698.4,698.4,0,0,1,182-394c10.66-11.47,22-22.85,33.71-33.83A702.29,702.29,0,0,1,555.46,36c20.71-6.94,42.09-13,63.55-18,8.51-2,16.53-3.75,24.39-5.21a696.72,696.72,0,0,1,215.43-8c382.65,45,657.34,392.93,612.35,775.55-29.44,250.74-192.72,466.85-426.13,564-12.32,5.09-24.91,9.91-37.48,14.34A694.09,694.09,0,0,1,806.85,1397Q792.36,1397.59,777.75,1397.58Zm-470-230.65a661.29,661.29,0,0,0,287.54,169.44,671.55,671.55,0,0,0,69.53,15.77c10.66,1.86,22.12,3.53,35.12,5.13A661.75,661.75,0,0,0,995.74,1325c11.91-4.2,23.91-8.8,35.61-13.64,221.45-92.15,376.39-297.2,404.32-535.13,42.7-363-217.94-693.14-581-735.86A661.17,661.17,0,0,0,650.12,48c-7.44,1.39-14.88,3-22.92,4.9-20.47,4.74-40.75,10.47-60.37,17A666.91,666.91,0,0,0,323.47,215.49c-11.12,10.43-21.88,21.22-32,32.09A662.35,662.35,0,0,0,118.82,621.39c-23.79,202.19,45.07,401,188.91,545.54Z"/><path class="cls-3" d="M433,1286.4c461.41,154.56,925.68-189.48,817.1-659.05-73.87-319.47-443.69-493.8-746-403.21-220,65.94-406,226.56-397,596,0,0,29.24,162.93,103,255.39s161.1,170,161.1,170Z"/><path class="cls-4" d="M1250.07,627.35C1358.65,1096.91,894.37,1441,433,1286.41l-12.51-8.3c443.13-49,788.33-424.68,687.38-901.49C1176.31,444,1227.25,528.77,1250.07,627.35Z"/><path class="cls-3" d="M777.75,1397.58a705.31,705.31,0,0,1-82.1-4.81c-13.69-1.69-25.74-3.45-36.93-5.4a707.87,707.87,0,0,1-73.2-16.6,697.19,697.19,0,0,1-303.13-178.62h0C130.81,1039.85,58.24,830.3,83.31,617.22A697.28,697.28,0,0,1,219.17,278.33l1.12-1.49,1.4-1.22c67.86-59.11,153.51-104.44,254.58-134.73,180-54,389.24-27.09,559.63,71.89,156.6,91,263.64,231,301.41,394.43,41,177.57,13.65,347.71-79.21,492C1161,1250.1,997.59,1358.5,809.69,1396.62l-2.8.35Q792.37,1397.59,777.75,1397.58Zm-470-230.65a661.29,661.29,0,0,0,287.54,169.44,671.55,671.55,0,0,0,69.53,15.77c10.66,1.86,22.12,3.53,35.12,5.13a667.19,667.19,0,0,0,104,4c177.93-36.47,332.43-139,424.08-281.41,87.51-136,113.26-296.69,74.44-464.64C1267,461.59,1165.91,329.63,1018,243.69c-162-94.1-360.67-119.73-531.41-68.56-95.47,28.61-176.19,71.08-240,126.24a661.45,661.45,0,0,0-127.75,320c-23.79,202.19,45.07,401,188.91,545.54Z"/><path class="cls-3" d="M659.55,1341.59a731.24,731.24,0,0,1-232.25-38.25l-2.23-.74-65.72-43.74c-3.61-3.21-89.34-79.57-163.21-172.18C120.43,991.77,90.76,830.13,89.53,823.29l-.28-2.72C81.39,497.28,219.24,290.85,499,207c160.69-48.15,347.39-24.18,499.44,64.13,139.8,81.19,235.36,206.26,269.1,352.17,48.71,210.66-12.38,412.35-167.6,553.33C981,1284.61,823.67,1341.59,659.55,1341.59Zm-218.67-71.41c227.35,75.34,470.46,29.45,635-120,145.36-132,202.52-321.13,156.81-518.82-31.49-136.17-121.06-253.12-252.22-329.3-143.67-83.45-319.83-106.18-471.22-60.8C247.26,319.78,118,513.91,125,818.27c2.94,15.33,32.48,162.56,99.13,246.12,67.91,85.14,148.63,158.42,158.08,166.91Z"/><path class="cls-1" d="M1534.52,717.42c-16.68,43-45.43,76.49-84.13,92.59-90.41,37.63-200.8-34.22-246.58-160.45-3.77-10.41-7-20.86-9.65-31.28-29.82-116.27,7.52-231,90.46-265.52C1375,315.14,1485.47,387,1531.25,513.22,1557.44,585.47,1556.81,659.89,1534.52,717.42Z"/><g class="cls-2"><path class="cls-3" d="M1534.52,717.42c-16.68,43-45.43,76.49-84.13,92.59-90.41,37.63-200.8-34.22-246.58-160.45-3.77-10.41-7-20.86-9.65-31.28,21.49,18.68,66.19,44,107.44-18.83l104-3.05S1485.67,642.32,1534.52,717.42Z"/></g><path class="cls-3" d="M1400.06,838c-22.71,0-46-5.09-69.07-15.24-63.06-27.73-115.55-88.63-144-167.08-48.92-134.9-8.21-278.17,90.75-319.37,39.53-16.45,83.21-15.15,126.29,3.8,63.06,27.73,115.55,88.63,144,167.08h0c48.92,134.9,8.21,278.17-90.75,319.37A148.11,148.11,0,0,1,1400.06,838ZM1335,360.63a112.28,112.28,0,0,0-43.47,8.64c-81.59,34-113.39,157-70.88,274.17,24.76,68.3,71.4,123.08,124.77,146.54,33.92,14.91,67.87,16.13,98.16,3.52,81.59-34,113.39-157,70.88-274.17h0c-24.76-68.3-71.4-123.08-124.76-146.54C1371.23,364.69,1352.8,360.63,1335,360.63Z"/><ellipse class="cls-1" cx="1428.04" cy="581.03" rx="144.16" ry="193.24" transform="translate(-101.6 388.45) rotate(-14.96)"/><path class="cls-3" d="M1450.15,773.29a120.42,120.42,0,0,1-16.28-1.12c-82.37-11.23-152.13-106-155.51-211.25-1.89-58.93,17.16-110.88,52.26-142.53,25.85-23.3,57.53-33.16,91.6-28.5,82.37,11.23,152.13,106,155.51,211.24,1.89,58.94-17.16,110.89-52.26,142.54C1503.79,763.21,1478,773.29,1450.15,773.29ZM1406,392.5c-26.94,0-51.87,9.76-72.84,28.66-34.29,30.91-52.89,81.81-51,139.64,3.32,103.51,71.63,196.67,152.27,207.67,33,4.48,63.59-5,88.59-27.58,34.29-30.91,52.89-81.8,51-139.63-3.32-103.51-71.63-196.67-152.27-207.67A115.75,115.75,0,0,0,1406,392.5Z"/><g class="cls-2"><path class="cls-3" d="M1327.92,704.4c-20.49-30.34-32.74-66.41-36.84-103,52.55,65.25,131.34,71.07,181.71,10.79,32.57-38.93,45.74-96.55,39.36-153.1,3.34,4.09,6.55,8.5,9.67,13.1,52.15,77.28,51,191.9-2.53,256S1380.06,781.63,1327.92,704.4Z"/></g><path class="cls-3" d="M1458,787.89c-16.89,0-34.25-3.79-51.56-11.36-50.92-22.27-95.57-75.36-119.45-142-40.67-113.57-11.59-228.47,66.21-261.59,29.33-12.48,62-11.57,94.47,2.63,50.92,22.26,95.57,75.35,119.44,142,40.68,113.57,11.6,228.47-66.2,261.59A108.9,108.9,0,0,1,1458,787.89ZM1396.09,400a73.33,73.33,0,0,0-28.92,5.83c-59.39,25.28-80.27,122.46-46.54,216.63,20.62,57.57,58,102.91,100.11,121.31,23.23,10.15,46.1,11,66.15,2.48,59.4-25.28,80.28-122.46,46.54-216.63-20.61-57.57-58-102.91-100.11-121.31C1420.68,402.78,1408.13,400,1396.09,400Z"/><g class="cls-5"><path class="cls-1" d="M705.5,307.1S428.15,409.88,321.4,619.28l-.33.66a278.55,278.55,0,0,0-29.58,142.84c3.88,65.3,16.12,109.74,28.41,148.44,37.41,117.68,77,165.82,77,165.82-86.71-40.9-146.87-99.5-179-197.21-3.15-9.64-6-19.7-8.66-30.11-.62-2.4-1.18-4.79-1.7-7.21-.06,0-.05-.06,0-.15a690.66,690.66,0,0,1-9.69-82.3c-5.58-97.79,8.26-232,104.26-322.83C481.58,267.47,711.29,291.73,705.5,307.1Z"/></g><g class="cls-5"><ellipse class="cls-1" cx="1009.02" cy="525.75" rx="91.01" ry="106.05" transform="translate(-124.26 626.75) rotate(-32.61)"/></g><g class="cls-5"><ellipse class="cls-1" cx="1112.87" cy="688.05" rx="37.58" ry="43.79" transform="translate(-188.99 818.68) rotate(-37.46)"/></g><circle class="cls-1" cx="625.72" cy="1752.31" r="90.12"/><g class="cls-2"><path class="cls-3" d="M537.49,1770.59A90.13,90.13,0,1,0,714,1734a89,89,0,0,0-16.31-36,90.12,90.12,0,0,1-159.53,33.06A89.15,89.15,0,0,0,537.49,1770.59Z"/></g><path class="cls-3" d="M625.7,1859.46a107.32,107.32,0,0,1-104.88-85.4h0a107.08,107.08,0,1,1,104.88,85.4Zm-71.57-92.31a73.12,73.12,0,1,0,10.48-55,73.21,73.21,0,0,0-10.48,55Z"/><path class="cls-1" d="M738.18,1977.57l455.26-35.42c53.88-4.18,94.58-51.71,90.4-105.66L1265,1594.22c-3.67-47.23-40.59-84.27-85.92-89.93a95.34,95.34,0,0,0-19.74-.46l-455.19,35.41c-54,4.19-94.65,51.72-90.4,105.66l14.9,191.89,3.9,50.39C636.7,1941.13,684.3,1981.75,738.18,1977.57Z"/><path class="cls-1" d="M1639.39,1530.43s60.42-1.22,78.65,68.5c11.62,44.45-13.41,95.08-13.41,95.08s-166.46,93.69-451.86,95.12c0,0-90.5-79.63-7.13-160.71C1245.64,1628.42,1505.77,1606.54,1639.39,1530.43Z"/><path class="cls-1" d="M738.18,1977.57l455.26-35.42c53.88-4.18,94.58-51.71,90.4-105.66L1265,1594.22c-3.67-47.23-40.59-84.27-85.92-89.93a95.34,95.34,0,0,0-19.74-.46l-455.19,35.41c-54,4.19-94.65,51.72-90.4,105.66l14.9,191.89,3.9,50.39C636.7,1941.13,684.3,1981.75,738.18,1977.57Z"/><path class="cls-1" d="M1639.39,1530.43s60.42-1.22,78.65,68.5c11.62,44.45-13.41,95.08-13.41,95.08s-166.46,93.69-451.86,95.12c0,0-90.5-79.63-7.13-160.71C1245.64,1628.42,1505.77,1606.54,1639.39,1530.43Z"/><g class="cls-2"><path class="cls-3" d="M1319.11,1897.39c4.18,53.94-36.52,101.46-90.42,105.68l-455.24,35.41c-53.9,4.17-101.46-36.44-105.68-90.42l-3.86-50.38L649,1705.79c-4.26-54,36.43-101.47,90.38-105.64l455.19-35.42a95.41,95.41,0,0,1,19.74.44c45.32,5.69,82.25,42.71,85.9,89.94l2.5,32c62.36-6.8,244.06-30.66,356.35-87.45,18.85,48.29,24.06,62.41,49,122.56-54.52,46.79-145.76,113.37-392.69,127.31Z"/></g><path class="cls-1" d="M738.18,1977.57l455.26-35.42c53.88-4.18,94.58-51.71,90.4-105.66L1265,1594.22c-3.67-47.23-40.59-84.27-85.92-89.93a95.34,95.34,0,0,0-19.74-.46l-455.19,35.41c-54,4.19-94.65,51.72-90.4,105.66l14.9,191.89,3.9,50.39C636.7,1941.13,684.3,1981.75,738.18,1977.57Z"/><g class="cls-2"><path class="cls-3" d="M738.18,1977.57l455.26-35.42c53.88-4.18,94.58-51.71,90.4-105.66L1265,1594.22c-3.67-47.23-40.59-84.27-85.92-89.93-24.51,19.18-40.08,31.44-40.08,31.44-7,196.19,12.73,339.69-290.55,343.17-104.56,1.19-176.63-24-219.8-42.11l3.9,50.39C636.7,1941.13,684.3,1981.75,738.18,1977.57Z"/></g><path class="cls-3" d="M730.48,1994.89a115.48,115.48,0,0,1-114.9-106.39l-18.85-242.3a115.47,115.47,0,0,1,106-123.93L1158,1486.85a115.63,115.63,0,0,1,123.93,106.05l18.85,242.3a115.46,115.46,0,0,1-106,123.92l-455.22,35.42C736.48,1994.78,733.47,1994.89,730.48,1994.89ZM1167,1520.52q-3.16,0-6.37.25l-455.22,35.42a81.41,81.41,0,0,0-74.77,87.37l18.85,242.3a81.61,81.61,0,0,0,87.38,74.77l455.23-35.42a81.39,81.39,0,0,0,74.76-87.37L1248,1595.54A81.43,81.43,0,0,0,1167,1520.52Z"/><path class="cls-1" d="M719.77,1977.2a86.78,86.78,0,0,0,18.41.37l455.26-35.42a98.51,98.51,0,0,0,84.7-64.55,96.62,96.62,0,0,0,5.63-41.1l-8.33-107.64-2.76-35.51-7.71-99.13c-4.18-54-51.78-94.57-105.66-90.39l-98.37,7.67c46,5,83.64,42.3,87.38,90l10.22,130.86,8.66,111.47c4.18,53.89-36.51,101.49-90.4,105.67Z"/><g class="cls-2"><path class="cls-3" d="M719.77,1977.2a86.78,86.78,0,0,0,18.41.37l455.26-35.42c53.88-4.18,94.58-51.71,90.33-105.65l-11.09-143.15c-9.48,26.18-27.63,58.83-60.3,64.65-17.91,3.23-36.7-8.38-53.84-25.63l8.66,111.47c4.18,53.89-36.51,101.49-90.4,105.67Z"/></g><path class="cls-3" d="M730.67,1994.89a108.1,108.1,0,0,1-13-.78l.72-33.84,357.07-27.74a81.56,81.56,0,0,0,74.72-87.37l-18.85-242.3a81.41,81.41,0,0,0-72.26-74.49l.53-33.85,98.33-7.68a115.63,115.63,0,0,1,123.93,106.07l18.86,242.27a115.59,115.59,0,0,1-106,123.94l-455.25,35.4C736.58,1994.77,733.63,1994.89,730.67,1994.89Zm396.59-471.54a115.19,115.19,0,0,1,38,76.87l18.85,242.3a114.44,114.44,0,0,1-27.43,83.86c-.49.57-1,1.14-1.49,1.7l36.92-2.87a81.56,81.56,0,0,0,74.72-87.37h0L1248,1595.54a81.61,81.61,0,0,0-87.39-74.78Z"/><path class="cls-6" d="M978.41,1738.61c.74,9,19.38,80.2,19.38,80.2l51-4.27c35.13-2.93,60.57-41.69,56.82-86.56s-35.27-78.86-70.4-75.93l-51,4.27S977.19,1724,978.41,1738.61Z"/><g class="cls-2"><path class="cls-3" d="M978.41,1738.61c.74,9,19.38,80.2,19.38,80.2l51-4.27c35.13-2.93,60.57-41.69,56.82-86.56s-35.27-78.86-70.4-75.93l-51,4.27S977.19,1724,978.41,1738.61Z"/></g><path class="cls-3" d="M988.16,1832.41,985.45,1822c-4.44-17-19-73-19.75-82.35h0c-1.29-15.33,5.09-77.62,5.82-84.67l1.09-10.51,61.56-5.15c21-1.75,41.35,6.79,57.38,24.08,15.22,16.42,24.74,39,26.79,63.5,4.33,51.8-26.39,96.81-68.47,100.33Zm3-94.88c.5,5,8.27,36.58,16.31,67.67l40.32-3.37c28.06-2.34,48.32-35,45.17-72.78-1.58-18.88-8.71-36-20.08-48.29-10.57-11.4-23.59-17.08-36.55-16l-40.45,3.38C993.31,1694,990.41,1729,991.12,1737.53Z"/><ellipse class="cls-6" cx="991" cy="1737.56" rx="63.83" ry="81.53" transform="translate(-141.27 88.57) rotate(-4.78)"/><g class="cls-2"><path class="cls-3" d="M1054.61,1732.26c3.76,44.84-21.68,83.62-56.8,86.56s-66.69-31.06-70.42-76a100.06,100.06,0,0,1,.07-17.83c11.61,30.07,36.72,50.08,64,47.76,30.34-2.54,53.49-31.78,56.74-68.69A102.6,102.6,0,0,1,1054.61,1732.26Z"/></g><path class="cls-1" d="M1054.61,1732.26a89.29,89.29,0,0,1,.32,9.07c-9.92-34.57-37.06-58.48-66.73-56-32.73,2.76-57.1,36.6-57.11,77.54a103.86,103.86,0,0,1-3.7-20c-3.76-44.85,21.68-83.63,56.8-86.57S1050.83,1687.37,1054.61,1732.26Z"/><path class="cls-3" d="M993.61,1831.74c-39.94,0-74.78-38.15-78.93-87.8h0c-2-24.53,3.58-48.35,15.87-67.07,12.93-19.7,31.61-31.51,52.59-33.26,42.13-3.53,79.85,35.77,84.18,87.57,2,24.53-3.59,48.35-15.88,67.07-12.93,19.7-31.61,31.51-52.59,33.27C997.1,1831.66,995.35,1831.74,993.61,1831.74Zm-53.51-89.93c3.16,37.79,28.61,66.54,56.63,64.29,13-1.09,24.85-8.85,33.38-21.85,9.18-14,13.36-32.07,11.79-50.94-3.17-37.79-28.66-66.63-56.63-64.28-13,1.09-24.86,8.84-33.39,21.84-9.18,14-13.36,32.07-11.78,50.94Z"/><path class="cls-3" d="M879.55,1977.57a12.76,12.76,0,0,1-12.67-11.47l-15-147.45a25.14,25.14,0,0,0-13.33-19.74l-45.27-23.77a50.45,50.45,0,0,1-26.95-40.77L750.2,1535.84a12.76,12.76,0,1,1,25.43-2.07l16.14,198.53a25.07,25.07,0,0,0,13.39,20.26l45.25,23.77a50.52,50.52,0,0,1,26.86,39.74l15,147.45a12.75,12.75,0,0,1-11.4,14A11.62,11.62,0,0,1,879.55,1977.57Z"/><path class="cls-1" d="M1639.39,1530.43s60.42-1.22,78.65,68.5c11.62,44.45-13.41,95.08-13.41,95.08s-166.46,93.69-451.86,95.12c0,0-90.5-79.63-7.13-160.71C1245.64,1628.42,1505.77,1606.54,1639.39,1530.43Z"/><g class="cls-2"><path class="cls-3" d="M1704.64,1694s-166.45,93.67-451.87,95.11c0,0-59-51.93-37.87-114.61.12.33.23.66.35,1,11.89,33.51,44.7,55.19,80.24,53.82,258.73-10,408.31-94.16,408.31-94.16a186.62,186.62,0,0,0,13.21-39.9c.36,1.18.71,2.41,1,3.64C1729.64,1643.37,1704.64,1694,1704.64,1694Z"/></g><path class="cls-3" d="M1276.08,1805.79a69.38,69.38,0,0,1-56.56-29.06c-33.22-46.56-35-95.66-4.91-138.26a69.54,69.54,0,0,1,49.4-29c54.39-5.88,240.52-29.44,352.22-86h0c18.37-9.3,39.43-10.28,57.76-2.7,21.08,8.71,48.69,28.59,60.5,73.78,7.84,30,1.49,61.55-5.22,82.74a69.55,69.55,0,0,1-37.06,41.82c-52.35,24.31-197.54,81.42-414.45,86.58C1277.2,1805.79,1276.64,1805.79,1276.08,1805.79Zm372.27-256a37.28,37.28,0,0,0-16.76,4.09h0c-113.66,57.5-292.37,81.69-363.93,89.42a35.58,35.58,0,0,0-25.26,14.75c-21.69,30.76-20.08,64,4.8,98.9a35.49,35.49,0,0,0,29.75,14.8c210.51-5,350.51-60,400.93-83.43a35.4,35.4,0,0,0,19-21.24c5.36-16.92,10.53-41.73,4.74-63.87-6.64-25.42-20.3-42.56-40.59-51A33.06,33.06,0,0,0,1648.35,1549.81Zm-24.44-11.08h0Z"/><path class="cls-1" d="M405.78,1330.31c-19.32-50.28,204-132.71,300.77-161.9,219.72-66.26,268.51-234.13,197.81-332.18-132.73-184.09-610.3-36.86-751.15,101.3C103,986.79-5.75,1107.77,21.38,1298.46"/><g class="cls-2"><path class="cls-3" d="M706.56,1168.43c-90.35,27.19-290.94,100.85-301.52,151.43-179.17-86.2,142.79-182.61,235.85-207.83,183.45-49.78,279.64-137.15,290.41-213.84C950.48,994.14,884.72,1114.69,706.56,1168.43Z"/></g><g class="cls-2"><path class="cls-3" d="M428.18,1330l-23.56-6.3a17.28,17.28,0,0,1,.42-3.83A202.23,202.23,0,0,0,428.18,1330Z"/></g><path class="cls-3" d="M405.79,1347.32a17,17,0,0,1-15.88-10.91c-2.56-6.67-4.28-17.34,2.09-30.35,34.41-70.24,298.41-150.54,309.64-153.93,106.13-32,181.55-93.29,206.89-168.13,16.54-48.82,10-99.06-18-137.83C858.41,801.57,801.7,775.51,722,768.7c-189.72-16.21-459.83,85.75-556.9,181-102.59,100.62-145.28,217.17-126.9,346.4a17,17,0,0,1-33.67,4.79c-20-140.53,26-266.86,136.75-375.47C245.57,823.12,523.21,717.6,724.91,734.82c90,7.68,155,38.45,193.25,91.46,34.46,47.8,42.7,109.27,22.59,168.63-28.92,85.39-112.5,154.56-229.29,189.79C586.12,1222.5,440,1285.37,422.55,1321c-.81,1.67-1,2.82-.89,3.19a17,17,0,0,1-15.87,23.11Z"/><path class="cls-3" d="M1948.94,1150.66a14.94,14.94,0,0,1-7.78-2.19c-184.43-112.15-253-388-255.82-399.72a15,15,0,0,1,29.16-7.06c.67,2.74,68.55,275.52,242.25,381.15a15,15,0,0,1-7.81,27.82Z"/><path class="cls-3" d="M453.57,1287.55h-.11c-97-.68-184.21-50.32-239.16-136.19-52.7-82.36-64-180.79-29.58-256.88a15,15,0,0,1,27.33,12.37c-30.32,66.95-19.77,154.44,27.52,228.34,49.37,77.15,127.41,121.75,214.1,122.36a15,15,0,0,1-.1,30Z"/><path class="cls-3" d="M820.4,2352a15,15,0,0,1-14.54-11.39C774.24,2213.11,451.62,2155.52,330,2144.08a15,15,0,0,1,2.8-29.87c18.73,1.76,459,45,502.2,219.2A15,15,0,0,1,820.4,2352Z"/><path class="cls-3" d="M1485,2388c-9.71,0-18.73-.4-26.91-1.22a15,15,0,1,1,3-29.85c116.36,11.61,405.48-65.14,429.62-163.13a15,15,0,0,1,29.13,7.17c-18.26,74.15-134.09,122.34-201.5,144.46C1638.23,2371.75,1547.33,2388,1485,2388Z"/><path class="cls-3" d="M295.8,2493.71c3.41-.93,5.75-1.45,8.5-2s5.27-1,7.91-1.44c5.22-.82,10.44-1.5,15.62-1.9a301.45,301.45,0,0,1,31-1.16,408,408,0,0,1,61,5.87c20,3.55,39.77,8,58.87,14.65,4.83,1.43,9.53,3.33,14.22,5.21s9.37,3.72,14,5.75a293.93,293.93,0,0,1,27,13.94c-10.24-.24-20.19-1.16-30.05-2.16-10-.63-19.69-1.84-29.44-2.71l-29.1-2.64c-4.84-.36-9.62-1-14.45-1.31l-14.43-.89c-19.22-1-38.35-1.47-57.29-.87-9.45.23-18.88.77-28.17,1.51-4.67.33-9.25.9-13.82,1.35l-6.72.87c-2.12.26-4.63.67-6,.89l-1.33.22a17,17,0,0,1-7.22-33.14Z"/><path class="cls-3" d="M1756.65,2574.12c7-22.46,21.47-42.33,38.49-59.09,17.08-17,37.87-30,59.8-40.34,11.21-4.48,22.47-9.3,34.22-12.19,5.84-1.55,11.64-3.55,17.6-4.48l17.86-3.07a136,136,0,0,1,18-1.83q9-.63,18-1c12,0,23.9.89,35.79,1.68a17,17,0,0,1-.77,33.88l-1.8,0c-10.91.18-21.79-.22-32.63-.26-5.39.35-10.77.64-16.17.85a123.19,123.19,0,0,0-16.1,1.26l-16,1.92a56.69,56.69,0,0,0-7.91,1.41l-7.87,1.6c-10.69,1.6-20.66,5.41-31.1,8.12a280.12,280.12,0,0,0-58,28.37A255.84,255.84,0,0,0,1756.65,2574.12Z"/></svg>