<?xml version="1.0" encoding="utf-8"?>
<!-- Generator: Adobe Illustrator 26.0.2, SVG Export Plug-In . SVG Version: 6.00 Build 0)  -->
<svg version="1.1" id="Layer_1" xmlns="http://www.w3.org/2000/svg" xmlns:xlink="http://www.w3.org/1999/xlink" x="0px" y="0px"
	 viewBox="0 0 530.9 528.6" style="enable-background:new 0 0 530.9 528.6;" xml:space="preserve">
<style type="text/css">
	.st0{fill:#FFFFFF;}
</style>
<path class="st0" d="M56,515.8h22.4c0-8.6,3.4-16.9,9.5-23c6.1-6.1,14.4-9.5,23-9.5c4-0.1,8,0.7,11.8,2.2l9.5,3.9l4.5-9.5v0
	c2.6-4.9,6.5-8.9,11.2-11.8c4.7-2.9,10.1-4.4,15.7-4.4c7.6,0,14.9,2.9,20.4,8.1c5.5,5.2,8.8,12.3,9.3,19.9l1.1,15.1l14-5l7.8-1.1h0
	c6.2,0,12.2,2.5,16.6,6.9c4.4,4.4,6.9,10.4,6.9,16.6v1.1h22.4v-1.7h0c0-12.2-4.8-23.9-13.4-32.5c-8.6-8.6-20.3-13.4-32.5-13.4h-2.8
	h0c-3.3-10.6-10-19.8-18.9-26.4c-9-6.5-19.8-10.1-30.9-10c-16.3-0.1-31.7,7.6-41.4,20.7l-11.2-1.1c-4.9-0.1-9.9,0.6-14.6,2.2
	c-3.6-10.2-10.2-19.1-19.1-25.4c-8.8-6.3-19.4-9.8-30.2-9.8c-9.7-0.2-19.3,2.4-27.7,7.5c-8.3,5.1-15.1,12.4-19.4,21.1l20.2,10.1v0
	c2.5-4.9,6.4-9.1,11.1-12c4.8-2.9,10.2-4.4,15.8-4.3c6.7,0,13.1,2.2,18.3,6.4c5.2,4.2,8.8,10,10.2,16.5
	C63.2,483.9,56.1,499.4,56,515.8L56,515.8z"/>
<path class="st0" d="M478.8,481c7.6,0,14.9,2.9,20.4,8.1c5.5,5.2,8.8,12.3,9.3,19.9l22.4-1.1h0c-0.7-13.3-6.5-25.9-16.2-35
	c-9.7-9.2-22.5-14.3-35.9-14.2c-13,0-25.6,4.8-35.3,13.4c-11-17.9-30.5-28.7-51.5-28.6c-12.4,0.1-24.4,3.8-34.6,10.8
	c-10.2,7-18,16.9-22.5,28.4c-10.9,1.3-21.2,5.5-30,12.1c-8.8,6.6-15.6,15.4-19.9,25.5l20.7,8.4v0c3-7.2,8.1-13.3,14.5-17.6
	c6.5-4.3,14.1-6.6,21.9-6.5h10.1l1.7-9l0,0c2.1-13.2,10.9-24.3,23.2-29.5c12.3-5.2,26.4-3.6,37.3,4.1s17,20.5,16.3,33.8
	c0,3.8-0.5,7.6-1.7,11.2l21.3,7.3c2.1-5.7,3-11.8,2.8-17.9c0.1-2.8-0.1-5.6-0.6-8.4c2.6-4.7,6.4-8.6,11-11.3S473.4,480.9,478.8,481
	L478.8,481z"/>
<path class="st0" d="M266,222.9c11.7,0,23-4.7,31.3-13c8.3-8.3,13-19.6,13-31.3c0-11.7-4.7-23-13-31.3c-8.3-8.3-19.6-13-31.3-13
	c-11.7,0-23,4.7-31.3,13c-8.3,8.3-13,19.6-13,31.3c0,11.7,4.7,23,13,31.3C243,218.2,254.3,222.9,266,222.9z M266,156.8
	c5.8,0,11.3,2.3,15.4,6.4c4.1,4.1,6.4,9.7,6.4,15.4c0,7.8-4.2,15-10.9,18.9c-6.8,3.9-15.1,3.9-21.8,0c-6.8-3.9-10.9-11.1-10.9-18.9
	c0-5.8,2.3-11.3,6.4-15.4C254.7,159.1,260.2,156.8,266,156.8L266,156.8z"/>
<path class="st0" d="M387.5,333.2l7.3-8.4c15-16.1,22.9-37.6,21.9-59.6c-0.9-22-10.7-42.7-27-57.5c-9.8-9.3-21.4-16.3-34.2-20.7
	C353.4,121,325.9,59.4,273.8,7.8L266,0l-7.8,7.8C206.1,59.4,178.6,121,176.4,187h0c-12.6,4.3-24.1,11.4-33.6,20.7
	c-16.4,14.7-26.2,35.4-27.3,57.4c-1.1,22,6.8,43.5,21.7,59.7l7.3,8.4l48.7-43.7c7.4,20.8,17.4,40.5,29.7,58.8
	c8.4,12.3,28.6,17.4,45.4,17.4h0.6c9,0,29.7-1.7,38.6-14c12.9-19.4,23.4-40.3,31.4-62.2L387.5,333.2z M394.2,266.6
	c0.5,12-2.6,23.9-9,34.2l-37-33h1.1l-2.8-3.4c1.7-5.6,2.8-10.6,3.9-16.2v0c2.3-12.2,3.8-24.6,4.5-37c7,4,13.6,8.7,19.6,14
	C386.3,235.9,393.3,250.7,394.2,266.6L394.2,266.6z M266,31.9c11.2,12,21.3,24.9,30.2,38.6C277,79,255,79,235.8,70.6
	C244.7,56.8,254.8,43.9,266,31.9z M224.6,90.2c13,6,27.1,9,41.4,9c14.3,0.1,28.5-3,41.4-9c24.2,47.3,31.7,101.4,21.3,153.4
	c-1.1,3.9-1.7,7.8-2.8,12.3v0c-18,11.2-38.7,17.2-59.9,17.2s-41.9-5.9-59.9-17.2c-0.6-3.9-1.7-7.8-2.2-11.8l0,0
	C192.4,192,199.7,137.4,224.6,90.2L224.6,90.2z M157.4,224.6c6-5.3,12.6-10,19.6-14c0.6,12.8,2.3,25.6,5,38.1
	c0.6,5.1,1.7,10.2,3.4,15.1l-2.2,3.4h0.6l-37,33v0c-7-12-9.7-25.9-7.8-39.6C140.9,246.8,147.4,234.1,157.4,224.6L157.4,224.6z
	 M289,338.8c-7.4,3.9-15.8,5.4-24.1,4.5c-13.4-1.1-21.8-5-23.5-7.3c-10.5-15.8-19.1-32.7-25.8-50.4c32.3,13.4,68.5,13.4,100.8,0
	C309.2,304.3,300,322.1,289,338.8L289,338.8z"/>
<path class="st0" d="M254.8,395.9h22.4v59h-22.4V395.9z"/>
<path class="st0" d="M306.9,380.2h22.4v48.6h-22.4V380.2z"/>
<path class="st0" d="M202.7,380.2h22.4v48.6h-22.4V380.2z"/>
</svg>
