<svg id="Layer_1" data-name="Layer 1" xmlns="http://www.w3.org/2000/svg" viewBox="0 0 490.01 490.01"><defs><style>.cls-1{fill:#fff;fill-rule:evenodd;}</style></defs><path class="cls-1" d="M375.5,400.25l84.64,84.64a17.5,17.5,0,1,0,24.75-24.74L400.24,375.5A226.62,226.62,0,0,0,455,227.5C455,101.94,353.06,0,227.5,0S0,101.94,0,227.5,101.94,455,227.5,455a226.62,226.62,0,0,0,148-54.76ZM227.5,35C333.74,35,420,121.26,420,227.51S333.74,420,227.5,420,35,333.75,35,227.51,121.25,35,227.5,35Zm0,315A122.56,122.56,0,0,1,105,227.51a17.5,17.5,0,0,0-35,0C70,314.43,140.57,385,227.5,385a17.5,17.5,0,0,0,0-35Z"/></svg>